<?xml version="1.0" standalone="no"?><!DOCTYPE svg PUBLIC "-//W3C//DTD SVG 1.1//EN" "http://www.w3.org/Graphics/SVG/1.1/DTD/svg11.dtd"><svg t="1777469754102" class="icon" viewBox="0 0 1024 1024" version="1.1" xmlns="http://www.w3.org/2000/svg" p-id="10249" xmlns:xlink="http://www.w3.org/1999/xlink" width="256" height="256"><path d="M798.237689 662.776702c-27.260494 0-52.81802 6.814874-76.670577 17.037684l-13.629748-22.149589-17.039683-35.779336 59.633893-107.339008s69.855704 1.703968 78.374546-10.222811l-1.703968-15.334715s-61.336862-10.22281-73.263641-18.741652c0 0-66.447767-35.779336-71.558672-10.222811 0 0-5.111905 8.519842 20.44562 10.222811 0 0 35.779336 8.519842 35.779336 30.669431l-1.703968 10.22181-69.855704 117.561819c-22.149589-39.187273-52.81702-71.558672-52.81702-71.558673-20.445621-18.742652-8.519842-28.965463-8.519842-28.965462 23.853557-37.483305 44.299178-139.710408 44.299178-139.710408 44.299178-68.152735 8.519842-97.117198 1.703969-110.747945-6.814874-15.333715 3.406937-22.148589-23.853558-25.556526-28.964463-3.406937-10.22281-10.22281-32.371399-32.371399-22.149589-22.149589-15.334715-18.741652-49.410083-42.59521s-25.557526-46.002146-86.894388-73.26364c-59.632894-28.964463-100.523135-1.702968-100.523135-1.702969-44.299178-1.703968-32.372399-39.187273-32.372399-39.187273 15.333715-23.853557 0-35.779336 0-35.779336-15.334715-52.81902-85.189419-11.927779-85.189419-11.927779-59.632894 25.557526-64.744799 97.117198-64.744799 97.117199-3.407937 23.852557 40.891241 0 40.891241 0-5.111905 10.22281 10.22281 17.037684 10.22281 17.037683-11.926779 30.668431 13.629747 20.445621 13.629748 20.445621 3.407937-3.407937 11.926779 5.110905 11.926778 5.110905-1.703968 6.815874 10.22281 10.22281 10.222811 10.222811-3.406937 6.815874 17.038684 8.519842 17.038683 8.519841 15.333715 8.517842 22.149589-8.519842 22.149589-8.519841 10.22181-5.110905 3.406937 8.519842 27.259495 5.111905h3.407936c20.445621 1.703968 15.334715 39.187273 15.334716 39.187273 8.518842 37.483305 71.558672 73.262641 80.078514 80.078514 8.518842 6.814874 8.518842 22.149589 0 37.483304-8.519842 15.333715-11.926779 8.518842-30.669431 17.037684-17.037684 8.519842-1.702968 10.22281-20.444621 35.779336-18.741652 25.557526-8.519842 32.372399-8.519841 32.3724-6.814874 10.22281-6.814874 23.853557-6.814874 23.853557 5.111905 37.483305 22.149589-10.22281 22.149589-10.22281 6.814874 11.926779 20.445621 13.629747 30.668431 10.22281 1.703968 3.406937 1.703968 8.518842-3.407937 17.037684l-44.299178 74.966609s-10.22181-6.814874-18.740652 5.111905l-25.557526 39.187273s-5.110905-15.334715-18.741652 5.110905l-5.110905 10.22281c-25.557526-13.629747-54.521988-20.445621-86.894388-20.44562-107.338008 0-192.528428 86.894388-192.528428 192.529427 0 107.338008 86.893388 192.528428 192.528428 192.528428 107.340008 0 192.529428-86.893388 192.529428-192.528428 0-61.336862-28.964463-117.561819-74.966609-151.637186l34.075367-52.81902s15.333715 3.407937 23.853558-23.852557c0 0 8.518842-20.445621 17.037684-1.703969l39.187273 61.336862c1.703968 11.926779 5.110905 20.445621 6.814873 27.260494 6.815874 18.741652 39.187273 83.486451 44.299178 119.265787 5.110905 35.779336-42.59521 32.372399-42.59521 32.3724-63.04083 8.518842 10.22281 42.59421 10.222811 42.594209 52.81802 1.703968 74.966609 18.742652 86.893388 13.630748 8.519842 8.519842 22.149589 18.741652 40.891241 10.22281 0 0 10.22281 1.703968 25.556526 3.407937v5.110905c0 98.820166 80.078514 178.898681 178.89868 178.89868s178.898681-80.078514 178.898681-178.89868c3.407937-102.228103-76.670577-182.306617-175.490744-182.306618z m-425.949097 95.41223c0 86.893388-69.855704 158.45306-158.45306 158.45306-86.893388 0-158.45306-69.855704-158.45306-158.45306 0-86.893388 69.855704-158.45306 158.45306-158.45306 27.261494 0 52.81802 6.814874 74.967609 18.741652 0 1.703968-1.703968 3.407937-3.407936 5.111905 0 0-27.260494-11.926779-23.853558-5.111905 0 0 13.630747 10.22281 15.334716 17.037684l-37.483305 68.152736c-6.815874-3.407937-15.334715-6.815874-25.557526-6.815874-28.964463 0-52.81702 23.853557-52.81702 52.81802 0 28.964463 23.852557 52.81702 52.81702 52.81702 18.741652 0 34.076368-8.518842 44.299178-23.852557 0 13.629747 10.22281 5.110905 10.222811 5.110905l11.926778-57.928925c3.406937-22.149589-10.22281-8.518842-10.22281-8.518842-1.703968 5.111905-3.407937 8.519842-6.815873 11.926778-1.703968-3.407937-3.406937-8.519842-6.814874-11.926778l54.520988-83.485451c39.187273 30.668431 61.336862 74.966609 61.336862 124.376692z m-143.118344 15.333716c15.333715-13.629747 15.333715-30.667431 15.333715-30.667431l8.519842-13.630748c3.406937 6.814874 6.814874 13.629747 6.814874 22.149589 0 23.852557-18.741652 44.299178-44.299178 44.299179-23.852557 0-44.299178-18.742652-44.299178-44.299179 0-23.853557 18.742652-44.299178 44.299178-44.299178 6.814874 0 13.629747 1.703968 20.44562 5.111906l-11.926778 20.44562s-32.371399-1.703968-30.668431 18.741652c1.703968 1.703968 20.445621 35.779336 35.779336 22.14959z m504.323642-27.259495c-1.703968 0-3.407937 0-3.407937-1.704968-10.22281-3.406937-10.22281 3.407937-22.149589-13.629747 0-1.703968-1.703968-1.703968-1.703968-1.703969 3.407937-3.407937 8.519842-6.814874 11.926779-8.519841l15.334715 25.557525z m-10.22281 61.335862c13.629747-6.814874 23.852557-13.629747 28.964463-25.556526l11.925778 22.149589c-8.518842 6.814874-11.925779 18.740652-11.925778 30.667431v1.703969c-11.926779-3.407937-32.372399-8.519842-54.521989-13.629747 1.703968-8.519842 10.22281-8.519842 25.557526-15.334716z m37.483304 27.260494c0-8.518842 3.406937-17.037684 6.814874-23.852557l6.814874 13.629747s-11.925779 10.22281-10.222811 17.038684c0 0-1.702968 0-3.406937-1.703968v-5.111906z m66.447768 11.926779s6.814874-35.779336-30.668431-42.59521l-5.110906-8.518841c3.406937 0 6.814874-1.703968 10.222811-1.703969 22.149589 0 40.890241 18.741652 40.890241 40.891241 0 22.149589-18.741652 40.891241-40.890241 40.891242-10.22281 0-18.742652-3.407937-27.261494-10.222811 18.741652 8.519842 49.410083 17.037684 52.81802-18.741652z m-34.076368-30.668431l-6.814874 5.111905-8.518842-18.742652c1.703968-1.702968 3.407937-1.702968 5.110905-3.406937l10.222811 17.037684z m-18.741652-22.149589l-18.741653-39.187273 22.149589 37.484305c-1.703968 0-1.703968 0-3.407936 1.702968z m-95.41223-149.933218l23.853557 46.002147c-3.407937 1.703968-6.815874 3.407937-8.519842 6.814873-3.406937-5.110905-3.406937-6.814874-3.406936-6.814873-3.407937-13.629747-8.519842-27.260494-13.629748-40.891242l1.702969-5.110905zM535.853557 523.065295v13.629747l-15.334715-11.925779c3.407937-6.815874 5.111905-13.629747 5.111905-13.629747 20.445621-25.557526 10.22281 11.925779 10.22281 11.925779z m-102.228103-107.339009c3.407937-5.111905 5.110905-6.815874 5.110905-6.815873 13.630747-11.925779 5.111905-17.037684 10.222811-25.556526s32.372399-44.299178 32.372399-44.299178c5.111905-8.518842 8.519842-13.629747 8.519842-17.037684 0 27.261494 32.371399 13.629747 32.371399 13.629747 15.333715-15.333715 13.629747 3.408937 13.629747 3.408937-18.741652 13.629747-44.298178 37.483305-73.26264 124.376692l-5.110905 15.333716-23.853558-17.037684c0 1.703968 35.779336-35.779336 0-46.002147z m136.303471 378.242982l-28.964462-83.486451c-5.110905-28.964463-5.110905-52.81802-10.222811-88.598356-6.814874-40.890241-22.149589-73.262641-25.556526-78.373546l39.187273 27.260495c20.445621 46.002146 66.447767 88.597356 66.447767 88.597356 10.22281 8.519842 17.037684 17.037684 23.853558 23.853557L569.928925 793.968268z m17.037684 15.333716l63.04083-110.746945c8.519842 11.926779 11.926779 20.445621 13.629747 25.556525-20.444621 23.853557-35.779336 54.521988-40.890241 86.894388-11.926779 0-25.557526-1.703968-35.779336-1.703968zM798.237689 988.201664c-76.670577 0-139.711408-59.632894-144.822313-134.600502 8.518842 1.703968 18.741652-3.406937 27.259494-10.222811 30.669431 3.407937 63.04083 8.519842 74.968609 11.926779 8.517842 17.037684 25.556526 28.964463 44.298178 28.964463 27.260494 0 49.409083-22.149589 49.409084-49.409084 0-27.261494-22.148589-49.411083-49.409084-49.411083-5.111905 0-10.22281 0-15.334715 1.703969l-47.706115-80.078515c18.741652-8.518842 37.483305-11.926779 59.632894-11.926778 80.078514 0 146.527281 64.744799 146.527281 146.527281 1.702968 80.078514-63.04083 146.526281-144.823313 146.526281z" p-id="10250" fill="#8a8a8a"></path></svg>